<?xml version="1.0" standalone="no"?>
<!DOCTYPE svg PUBLIC "-//W3C//DTD SVG 20010904//EN"
 "http://www.w3.org/TR/2001/REC-SVG-20010904/DTD/svg10.dtd">
<svg version="1.0" xmlns="http://www.w3.org/2000/svg"
 width="1280.000000pt" height="826.000000pt" viewBox="0 0 1280.000000 826.000000"
 preserveAspectRatio="xMidYMid meet">
<metadata>
Created by potrace 1.15, written by Peter Selinger 2001-2017
</metadata>
<g transform="translate(0.000000,826.000000) scale(0.100000,-0.100000)"
fill="#ffff" stroke="black">
<path d="M390 7938 l0 -323 125 -63 c69 -34 127 -62 130 -62 3 0 5 136 5 303
l0 302 -73 46 c-39 25 -98 62 -129 83 l-58 37 0 -323z"/>
<path d="M1960 7642 l0 -238 124 -37 c68 -20 126 -37 130 -37 3 0 5 102 4 226
l-3 226 -75 28 c-41 15 -99 37 -127 49 l-53 21 0 -238z"/>
<path d="M0 7097 l0 -352 23 -15 c12 -7 70 -42 130 -77 l107 -62 0 332 0 332
-130 97 -130 98 0 -353z"/>
<path d="M4310 7037 l0 -164 113 -16 c61 -10 120 -17 130 -17 16 0 17 12 15
158 l-3 157 -110 22 c-60 12 -118 22 -127 22 -16 1 -18 -13 -18 -162z"/>
<path d="M780 6625 l0 -295 58 -26 c70 -32 193 -84 199 -84 2 0 2 126 1 281
l-3 281 -124 69 c-69 38 -126 69 -128 69 -2 0 -3 -133 -3 -295z"/>
<path d="M12080 6721 l-105 -27 -3 -182 c-1 -105 1 -182 7 -182 8 0 182 34
229 45 22 5 22 7 22 190 l0 185 -22 -1 c-13 0 -70 -13 -128 -28z"/>
<path d="M1176 6703 c-3 -4 -6 -124 -6 -268 0 -198 3 -265 13 -272 16 -14 224
-93 242 -93 13 0 15 39 15 255 l0 255 -129 64 c-71 36 -131 62 -135 59z"/>
<path d="M3690 6497 l0 -185 123 -22 c67 -13 125 -24 130 -27 4 -2 7 77 7 175
l0 180 -112 27 c-62 15 -121 29 -130 32 -17 4 -18 -9 -18 -180z"/>
<path d="M8380 6506 c0 -69 3 -127 8 -130 4 -2 62 -2 130 1 l122 6 0 123 0
124 -130 0 -130 0 0 -124z"/>
<path d="M0 6248 l0 -353 130 -52 130 -51 0 333 0 333 -72 40 c-40 21 -99 53
-130 71 l-58 33 0 -354z"/>
<path d="M1570 6266 l0 -253 123 -42 c67 -23 125 -41 130 -41 4 0 6 109 5 241
l-3 242 -124 53 c-69 30 -126 54 -128 54 -2 0 -3 -114 -3 -254z"/>
<path d="M6270 6327 l0 -134 77 -7 c42 -3 100 -6 130 -6 l53 0 0 129 c0 72 -3
132 -7 134 -5 3 -63 8 -130 12 l-123 7 0 -135z"/>
<path d="M390 6067 l0 -322 108 -37 c59 -20 117 -39 130 -43 l22 -6 0 304 c0
235 -3 306 -12 310 -7 3 -66 30 -130 61 l-118 55 0 -322z"/>
<path d="M5092 6208 l3 -153 110 -12 c61 -6 118 -12 128 -12 15 -1 17 12 17
144 0 166 15 146 -125 165 -44 6 -92 13 -108 16 l-28 6 3 -154z"/>
<path d="M2350 5991 l0 -220 55 -16 c30 -8 81 -22 113 -31 31 -8 65 -17 75
-20 16 -5 17 10 17 208 l0 214 -117 38 c-65 21 -124 41 -130 43 -10 4 -13 -43
-13 -216z"/>
<path d="M782 5908 l3 -292 100 -32 c55 -17 112 -34 128 -38 l27 -6 0 282 0
283 -119 48 c-65 26 -124 47 -130 47 -8 0 -11 -78 -9 -292z"/>
<path d="M2742 5873 l3 -207 110 -28 c61 -15 118 -28 128 -28 16 0 17 14 15
197 l-3 197 -104 32 c-58 18 -115 35 -128 39 l-23 5 2 -207z"/>
<path d="M9955 6015 c-5 -2 -45 -6 -87 -10 l-78 -7 0 -140 0 -140 83 6 c45 4
103 9 130 12 l47 6 0 139 0 139 -42 -1 c-24 0 -47 -2 -53 -4z"/>
<path d="M12660 5981 l-125 -36 -3 -193 c-1 -105 0 -192 3 -192 19 0 241 53
248 59 4 4 6 95 5 203 l-3 195 -125 -36z"/>
<path d="M3132 5768 l3 -193 95 -22 c52 -12 110 -24 128 -28 l32 -6 0 188 0
188 -123 33 c-67 18 -125 33 -130 32 -4 0 -6 -87 -5 -192z"/>
<path d="M1570 5657 l0 -255 94 -21 c51 -12 110 -24 130 -28 l36 -6 0 241 0
241 -107 34 c-60 19 -118 38 -130 41 l-23 7 0 -254z"/>
<path d="M9063 5833 l-53 -4 0 -133 0 -133 118 4 c64 3 123 6 130 8 9 3 12 39
12 135 l0 130 -77 -2 c-43 -1 -102 -3 -130 -5z"/>
<path d="M11890 5784 c-52 -13 -105 -26 -117 -29 -23 -5 -23 -7 -23 -175 0
-129 3 -170 13 -170 6 0 61 9 121 20 60 11 113 20 118 20 4 0 8 81 8 180 0
138 -3 180 -12 179 -7 -1 -56 -12 -108 -25z"/>
<path d="M1960 5553 l0 -239 130 -25 130 -26 0 227 0 227 -116 32 c-64 18
-123 35 -130 38 -12 4 -14 -36 -14 -234z"/>
<path d="M3920 5761 c-3 -36 2 -336 5 -340 5 -5 212 -41 238 -41 15 0 17 14
17 165 0 163 0 165 -22 170 -163 36 -238 51 -238 46z"/>
<path d="M0 5401 c0 -324 1 -350 18 -355 27 -9 213 -46 228 -46 12 0 14 52 12
331 l-3 331 -120 44 c-66 24 -123 44 -127 44 -5 0 -8 -157 -8 -349z"/>
<path d="M11477 5695 c-59 -12 -110 -24 -113 -27 -2 -3 -3 -77 -2 -165 l3
-159 125 20 125 21 3 168 c2 155 1 167 -15 166 -10 -1 -66 -11 -126 -24z"/>
<path d="M2352 5459 l3 -222 125 -23 c69 -13 126 -24 128 -24 1 0 2 96 2 213
l0 213 -117 28 c-65 16 -124 31 -131 34 -10 3 -12 -42 -10 -219z"/>
<path d="M11100 5624 c-41 -7 -90 -16 -107 -19 l-33 -6 0 -154 c0 -122 3 -155
13 -155 22 0 231 30 245 35 9 3 12 45 12 160 l0 155 -27 -1 c-16 -1 -62 -7
-103 -15z"/>
<path d="M390 5291 l0 -320 53 -10 c28 -6 87 -17 130 -24 l77 -15 0 307 0 307
-124 37 c-68 20 -126 37 -130 37 -3 0 -6 -144 -6 -319z"/>
<path d="M4702 5453 l3 -157 128 -16 127 -16 0 153 c0 84 -3 153 -7 153 -5 0
-60 9 -123 20 -63 11 -118 20 -123 20 -4 0 -6 -71 -5 -157z"/>
<path d="M2740 5376 c0 -205 0 -206 23 -211 43 -9 202 -35 220 -35 16 0 17 16
17 198 l0 197 -107 24 c-60 13 -118 26 -130 29 l-23 4 0 -206z"/>
<path d="M10815 5574 c-5 -1 -63 -10 -127 -19 l-118 -17 0 -149 c0 -82 4 -149
8 -149 22 0 245 30 249 33 9 9 -3 304 -12 301z"/>
<path d="M12660 5509 c-47 -11 -95 -21 -107 -24 -23 -5 -23 -7 -23 -195 0
-174 1 -190 18 -190 9 0 68 7 130 17 l112 16 0 199 0 198 -22 -1 c-13 -1 -61
-10 -108 -20z"/>
<path d="M10293 5502 l-113 -15 0 -145 0 -145 53 6 c28 3 87 9 130 13 l77 7 0
148 c0 136 -2 149 -17 148 -10 -1 -69 -9 -130 -17z"/>
<path d="M780 5195 c0 -229 3 -295 13 -295 6 -1 65 -9 130 -19 l117 -18 0 282
0 282 -119 31 c-65 18 -124 32 -130 32 -8 0 -11 -83 -11 -295z"/>
<path d="M3132 5298 l3 -193 110 -17 c61 -9 118 -17 128 -17 16 -1 17 14 17
187 l0 187 -118 23 c-64 12 -123 22 -130 22 -10 0 -12 -42 -10 -192z"/>
<path d="M5482 5348 l3 -143 70 -7 c39 -3 96 -9 128 -12 l57 -6 0 143 0 143
-108 12 c-172 19 -153 35 -150 -130z"/>
<path d="M5870 5312 l0 -140 73 -6 c39 -4 98 -9 130 -12 l57 -6 0 140 0 139
-77 7 c-43 4 -102 10 -130 13 l-53 6 0 -141z"/>
<path d="M12248 5426 l-108 -21 0 -184 0 -183 28 5 c15 3 73 11 130 18 l102
13 0 188 0 188 -22 -1 c-13 -1 -71 -11 -130 -23z"/>
<path d="M9585 5425 c-5 -2 -49 -7 -97 -10 l-88 -7 0 -134 0 -134 33 0 c17 0
76 3 130 7 l97 6 0 139 0 138 -32 -1 c-18 0 -37 -2 -43 -4z"/>
<path d="M3525 5412 c-10 -11 -5 -351 6 -357 11 -7 196 -34 237 -35 22 0 22 0
22 174 l0 175 -52 10 c-137 27 -208 38 -213 33z"/>
<path d="M1172 5118 l3 -273 110 -17 c61 -9 120 -17 133 -17 l22 -1 0 260 0
260 -27 6 c-16 3 -72 17 -125 30 -53 13 -102 24 -107 24 -8 0 -11 -82 -9 -272z"/>
<path d="M6660 5254 l0 -131 53 -7 c28 -3 87 -6 130 -6 l77 0 0 130 c0 117 -2
130 -17 131 -10 0 -69 4 -131 7 l-112 7 0 -131z"/>
<path d="M11868 5357 l-118 -20 0 -174 0 -175 23 5 c12 3 70 11 130 18 l107
12 0 178 c0 137 -3 179 -12 178 -7 -1 -66 -10 -130 -22z"/>
<path d="M8643 5363 l-33 -4 0 -130 0 -129 38 0 c20 0 81 3 135 7 l97 6 0 129
0 128 -102 -2 c-57 0 -118 -3 -135 -5z"/>
<path d="M7050 5230 l0 -130 130 0 130 0 0 130 0 130 -130 0 -130 0 0 -130z"/>
<path d="M8308 5353 l-88 -4 0 -129 0 -130 78 0 c42 0 101 3 130 6 l52 7 0
128 0 129 -42 -2 c-24 -1 -82 -4 -130 -5z"/>
<path d="M3920 5177 l0 -175 38 -6 c20 -3 62 -8 92 -11 30 -3 72 -8 93 -11
l37 -6 0 170 0 170 -112 16 c-62 10 -121 20 -130 22 -17 5 -18 -8 -18 -169z"/>
<path d="M7440 5220 l0 -130 130 0 130 0 0 130 0 130 -130 0 -130 0 0 -130z"/>
<path d="M11453 5293 l-93 -15 0 -164 c0 -109 4 -164 11 -164 17 0 202 21 227
26 22 4 22 6 22 169 l0 165 -37 -1 c-21 -1 -80 -8 -130 -16z"/>
<path d="M1570 5047 l0 -255 103 -11 c56 -7 114 -15 130 -17 l27 -6 0 244 0
245 -107 22 c-60 12 -118 25 -130 28 l-23 5 0 -255z"/>
<path d="M4312 5123 l3 -168 115 -12 c63 -6 121 -12 128 -12 9 -1 12 37 12
158 l0 159 -27 6 c-16 3 -66 10 -113 16 -47 6 -93 13 -103 16 -16 5 -17 -6
-15 -163z"/>
<path d="M11093 5242 l-123 -15 0 -159 0 -159 48 6 c26 4 83 9 127 13 l80 7 3
154 c1 85 -1 157 -5 161 -5 4 -63 0 -130 -8z"/>
<path d="M4700 5076 l0 -154 28 -6 c15 -3 73 -8 130 -12 l102 -7 0 151 0 151
-32 5 c-59 10 -189 26 -209 26 -18 0 -19 -9 -19 -154z"/>
<path d="M1962 4983 l3 -238 60 -6 c33 -4 90 -10 128 -14 l67 -7 -2 228 -3
228 -120 22 c-66 13 -123 23 -128 23 -4 1 -6 -106 -5 -236z"/>
<path d="M5090 5041 c0 -82 3 -152 8 -154 4 -3 62 -8 130 -12 l122 -7 0 145 0
145 -42 6 c-24 3 -72 8 -108 11 -36 4 -75 8 -87 11 l-23 4 0 -149z"/>
<path d="M10315 5153 c-16 -1 -54 -6 -82 -9 l-53 -5 0 -146 0 -145 65 6 c36 3
94 9 130 12 l65 6 0 144 0 144 -47 -1 c-27 -1 -61 -4 -78 -6z"/>
<path d="M2352 4929 l3 -224 70 -7 c39 -3 96 -9 128 -12 l57 -6 0 213 0 214
-109 17 c-60 10 -119 20 -130 23 -21 5 -21 5 -19 -218z"/>
<path d="M5484 5141 c-2 -2 -4 -66 -4 -142 0 -162 -17 -144 153 -154 l108 -6
-3 143 -3 143 -123 10 c-68 6 -125 8 -128 6z"/>
<path d="M9903 5117 l-113 -9 0 -139 0 -139 33 0 c17 0 76 3 130 7 l97 6 0
144 c0 130 -2 143 -17 141 -10 0 -69 -5 -130 -11z"/>
<path d="M5870 4976 c0 -100 3 -138 13 -141 6 -2 66 -6 132 -7 l120 -3 2 132
c1 116 -1 133 -15 137 -9 3 -70 8 -134 12 l-118 6 0 -136z"/>
<path d="M9575 5093 c-27 -1 -78 -5 -112 -9 l-63 -6 0 -134 0 -134 33 0 c17 0
76 3 130 7 l97 6 0 139 c0 125 -2 138 -17 136 -10 -1 -40 -3 -68 -5z"/>
<path d="M6270 4948 l0 -138 78 0 c42 0 101 -3 130 -6 l52 -7 0 137 0 136 -27
1 c-16 1 -74 4 -131 8 l-102 6 0 -137z"/>
<path d="M9048 5063 l-38 -4 0 -132 0 -132 127 5 128 5 3 133 3 132 -93 -2
c-51 -1 -110 -3 -130 -5z"/>
<path d="M6660 4931 l0 -128 53 -7 c28 -3 87 -6 130 -6 l77 0 0 129 c0 152 12
141 -152 141 l-108 0 0 -129z"/>
<path d="M8742 5050 l-123 -5 -2 -128 -2 -127 133 0 132 0 0 129 c0 72 -3 131
-7 133 -5 2 -63 1 -131 -2z"/>
<path d="M7050 4921 l0 -128 68 -6 c37 -4 95 -7 130 -7 l62 0 0 129 0 128 -67
6 c-38 4 -96 7 -130 7 l-63 0 0 -129z"/>
<path d="M12633 5032 l-103 -15 0 -195 0 -194 43 5 c23 4 81 9 130 13 l87 6 0
199 0 199 -27 -1 c-16 -1 -74 -8 -130 -17z"/>
<path d="M7440 4910 l0 -130 130 0 130 0 0 130 0 130 -130 0 -130 0 0 -130z"/>
<path d="M7837 5033 c-4 -3 -7 -62 -7 -130 l0 -123 130 0 130 0 0 130 0 130
-123 0 c-68 0 -127 -3 -130 -7z"/>
<path d="M8220 4910 l0 -131 133 3 132 3 3 128 3 127 -136 0 -135 0 0 -130z"/>
<path d="M3135 5021 c-3 -2 -5 -89 -5 -192 l0 -188 33 -5 c17 -3 76 -8 130
-12 l97 -6 0 186 c0 184 0 186 -22 191 -48 10 -229 31 -233 26z"/>
<path d="M12253 4982 l-113 -15 0 -184 0 -184 33 5 c17 3 76 8 130 12 l97 6 0
189 c0 174 -1 189 -17 188 -10 -1 -69 -8 -130 -17z"/>
<path d="M3525 4971 c-3 -2 -5 -84 -5 -182 l0 -178 53 -5 c28 -3 88 -7 132 -8
l80 -3 0 175 0 175 -128 15 c-70 9 -130 14 -132 11z"/>
<path d="M3920 4756 l0 -176 33 0 c17 0 76 -3 130 -7 l97 -6 0 166 c0 189 10
171 -105 182 -38 3 -89 8 -112 12 l-43 5 0 -176z"/>
<path d="M0 4553 l0 -353 130 0 130 0 0 330 c0 182 -1 330 -2 330 -2 1 -60 11
-130 24 l-128 22 0 -353z"/>
<path d="M11475 4896 l-110 -11 -3 -162 -2 -163 53 0 c30 0 88 3 130 6 l77 7
0 168 c0 155 -1 169 -17 167 -10 0 -67 -6 -128 -12z"/>
<path d="M4310 4728 l0 -165 61 -7 c34 -3 93 -6 130 -6 l69 0 0 159 0 158 -82
7 c-46 4 -104 10 -130 13 l-48 6 0 -165z"/>
<path d="M11140 4864 c-8 -1 -50 -6 -92 -9 l-78 -7 0 -154 0 -154 69 0 c37 0
96 3 130 6 l61 7 0 158 0 159 -37 -1 c-21 -1 -45 -3 -53 -5z"/>
<path d="M4700 4698 l0 -155 68 -6 c37 -4 95 -7 130 -7 l62 0 0 149 c0 83 -3
152 -7 154 -5 3 -63 8 -130 12 l-123 8 0 -155z"/>
<path d="M392 4518 l3 -323 128 -3 127 -3 0 306 0 305 -22 4 c-13 3 -59 10
-103 16 -44 6 -92 13 -108 16 l-27 6 2 -324z"/>
<path d="M10770 4834 c-14 -2 -64 -6 -112 -9 l-88 -7 0 -149 0 -149 38 0 c22
0 80 3 130 6 l92 7 0 153 c0 169 5 156 -60 148z"/>
<path d="M5090 4672 l0 -152 69 0 c37 0 96 -3 130 -6 l61 -7 0 152 0 151 -32
0 c-18 0 -77 3 -130 7 l-98 6 0 -151z"/>
<path d="M10305 4803 c-33 -2 -75 -5 -92 -8 l-33 -6 0 -139 0 -140 130 0 130
0 0 150 0 150 -37 -2 c-21 -1 -65 -3 -98 -5z"/>
<path d="M5480 4656 l0 -143 61 -7 c34 -3 93 -6 130 -6 l69 0 0 140 0 139 -32
5 c-18 3 -77 7 -130 10 l-98 4 0 -142z"/>
<path d="M9975 4783 c-33 -1 -88 -5 -122 -9 l-63 -6 0 -140 0 -141 68 6 c37 4
95 7 130 7 l62 0 0 145 c0 80 -3 144 -7 143 -5 -1 -35 -3 -68 -5z"/>
<path d="M780 4485 l0 -295 130 0 130 0 0 280 c0 154 -3 280 -7 280 -5 0 -55
7 -113 15 -58 8 -113 15 -122 15 -17 0 -18 -21 -18 -295z"/>
<path d="M5873 4764 c-2 -5 -2 -68 -1 -140 l3 -129 133 -3 132 -3 0 136 c0 74
-1 135 -2 136 -2 1 -61 4 -132 7 -86 5 -130 4 -133 -4z"/>
<path d="M9520 4761 l-115 -6 -3 -139 -3 -139 62 7 c34 3 93 6 130 6 l69 0 0
140 c0 106 -3 140 -12 138 -7 -1 -65 -4 -128 -7z"/>
<path d="M6270 4621 l0 -141 130 0 130 0 0 135 0 135 -77 0 c-43 0 -102 3
-130 6 l-53 7 0 -142z"/>
<path d="M9058 4743 l-48 -4 0 -130 0 -129 130 0 130 0 0 135 0 135 -82 -2
c-46 -1 -104 -3 -130 -5z"/>
<path d="M6660 4611 l0 -128 68 -6 c37 -4 95 -7 130 -7 l62 0 0 135 0 135
-130 0 -130 0 0 -129z"/>
<path d="M8678 4733 l-58 -4 0 -130 0 -130 128 3 127 3 0 130 0 130 -70 1
c-38 0 -96 -1 -127 -3z"/>
<path d="M1172 4458 l3 -273 130 0 130 0 0 260 0 260 -100 12 c-55 6 -115 12
-133 12 l-32 1 2 -272z"/>
<path d="M7050 4600 l0 -130 130 0 130 0 0 130 0 130 -130 0 -130 0 0 -130z"/>
<path d="M7837 4723 c-4 -3 -7 -62 -7 -130 l0 -123 130 0 130 0 0 130 0 130
-123 0 c-68 0 -127 -3 -130 -7z"/>
<path d="M1570 4435 l0 -255 130 0 130 0 -2 243 -3 242 -70 7 c-38 3 -96 9
-127 13 l-58 6 0 -256z"/>
<path d="M1960 4416 l0 -234 123 -4 c67 -2 125 -3 130 -1 4 2 7 105 7 227 l0
223 -113 12 c-62 6 -121 11 -130 11 -15 0 -17 -21 -17 -234z"/>
<path d="M2350 4396 l0 -226 130 0 130 0 0 214 0 214 -112 7 c-62 3 -121 9
-130 11 -17 5 -18 -10 -18 -220z"/>
<path d="M2740 4379 l0 -209 130 0 130 0 0 199 0 199 -97 6 c-54 4 -113 8
-130 11 l-33 4 0 -210z"/>
<path d="M3130 4365 l0 -195 130 0 130 0 0 185 0 184 -32 5 c-18 3 -77 7 -130
10 l-98 5 0 -194z"/>
<path d="M12360 4543 c-19 -1 -77 -6 -127 -9 l-93 -6 0 -179 0 -179 130 0 130
0 0 190 c0 105 -1 189 -2 188 -2 0 -19 -3 -38 -5z"/>
<path d="M3520 4350 l0 -180 135 0 135 0 0 174 0 173 -67 6 c-38 4 -98 7 -135
7 l-68 0 0 -180z"/>
<path d="M11813 4513 l-63 -4 0 -174 0 -175 69 0 c37 0 96 3 130 6 l61 7 0
173 0 174 -67 -2 c-38 -1 -96 -3 -130 -5z"/>
<path d="M3920 4335 l0 -176 128 3 127 3 3 166 2 166 -82 6 c-46 4 -104 7
-130 7 l-48 0 0 -175z"/>
<path d="M11413 4493 l-53 -4 0 -165 0 -164 130 0 130 0 0 170 0 170 -77 -2
c-43 -1 -102 -3 -130 -5z"/>
<path d="M4310 4325 l0 -165 130 0 130 0 0 159 0 158 -52 7 c-29 3 -88 6 -130
6 l-78 0 0 -165z"/>
<path d="M4700 4321 l0 -161 130 0 130 0 0 155 0 155 -107 0 c-60 0 -118 3
-130 6 l-23 6 0 -161z"/>
<path d="M10985 4473 c-19 -4 -20 -10 -17 -158 l3 -155 129 0 130 0 0 160 0
160 -112 -1 c-62 -1 -122 -4 -133 -6z"/>
<path d="M10653 4463 l-83 -4 0 -149 0 -150 130 0 130 0 0 155 0 155 -47 -2
c-27 -1 -85 -4 -130 -5z"/>
<path d="M5090 4310 l0 -150 130 0 130 0 0 144 0 143 -46 7 c-26 3 -84 6 -130
6 l-84 0 0 -150z"/>
<path d="M5480 4305 l0 -145 130 0 130 0 0 139 0 138 -77 7 c-42 3 -100 6
-130 6 l-53 0 0 -145z"/>
<path d="M10180 4305 l0 -145 130 0 130 0 0 145 0 145 -130 0 -130 0 0 -145z"/>
<path d="M5877 4433 c-4 -3 -7 -66 -7 -140 l0 -133 135 0 135 0 0 134 0 133
-92 7 c-116 8 -163 8 -171 -1z"/>
<path d="M6270 4295 l0 -135 130 0 131 0 -3 133 -3 132 -127 3 -128 3 0 -136z"/>
<path d="M9088 4423 l-78 -4 0 -129 0 -130 130 0 131 0 -3 133 -3 132 -50 1
c-27 0 -85 -1 -127 -3z"/>
<path d="M9400 4295 l0 -135 130 0 130 0 0 135 0 135 -130 0 -130 0 0 -135z"/>
<path d="M6660 4290 l0 -130 130 0 130 0 0 130 0 130 -130 0 -130 0 0 -130z"/>
<path d="M7050 4290 l0 -130 130 0 130 0 0 130 0 130 -130 0 -130 0 0 -130z"/>
<path d="M7447 4413 c-4 -3 -7 -62 -7 -130 l0 -123 130 0 130 0 0 124 0 123
-92 7 c-116 8 -153 8 -161 -1z"/>
<path d="M8227 4414 c-4 -4 -7 -63 -7 -131 l0 -123 135 0 136 0 -3 128 -3 127
-126 3 c-69 1 -128 -1 -132 -4z"/>
<path d="M8620 4290 l0 -130 130 0 130 0 0 130 0 130 -130 0 -130 0 0 -130z"/>
<path d="M7830 4285 l0 -125 130 0 130 0 0 125 0 125 -130 0 -130 0 0 -125z"/>
<path d="M4008 4093 l-88 -4 0 -169 0 -170 63 0 c34 0 92 3 130 7 l67 6 -2
166 -3 166 -40 1 c-22 0 -79 -1 -127 -3z"/>
<path d="M4310 3935 l0 -165 93 0 c50 0 109 3 130 6 l37 7 0 158 0 159 -130 0
-130 0 0 -165z"/>
<path d="M4700 3939 l0 -162 46 7 c26 3 84 6 130 6 l84 0 0 155 0 155 -130 0
-130 0 0 -161z"/>
<path d="M5090 3950 l0 -150 108 0 c165 0 152 -13 152 156 l0 144 -130 0 -130
0 0 -150z"/>
<path d="M5480 3955 l0 -145 78 0 c42 0 101 3 130 6 l52 7 0 138 0 139 -130 0
-130 0 0 -145z"/>
<path d="M5870 3960 l0 -140 74 0 c40 0 101 3 135 6 l61 7 0 133 0 134 -135 0
-135 0 0 -140z"/>
<path d="M6270 3965 l0 -136 128 3 127 3 3 133 3 132 -131 0 -130 0 0 -135z"/>
<path d="M6660 3970 l0 -130 130 0 130 0 0 130 0 130 -130 0 -130 0 0 -130z"/>
<path d="M7050 3970 l0 -130 130 0 130 0 0 130 0 130 -130 0 -130 0 0 -130z"/>
<path d="M7440 3970 l0 -130 130 0 130 0 0 130 0 130 -130 0 -130 0 0 -130z"/>
<path d="M7832 3973 l3 -128 128 -3 127 -3 0 131 0 130 -130 0 -131 0 3 -127z"/>
<path d="M8222 3973 l3 -128 130 0 130 0 3 128 3 127 -136 0 -136 0 3 -127z"/>
<path d="M8620 3970 l0 -130 130 0 130 0 0 130 0 130 -130 0 -130 0 0 -130z"/>
<path d="M9010 3971 l0 -128 68 -6 c37 -4 95 -7 130 -7 l62 0 0 135 0 135
-130 0 -130 0 0 -129z"/>
<path d="M9400 3965 l0 -135 130 0 130 0 0 135 0 135 -130 0 -130 0 0 -135z"/>
<path d="M9790 3960 l0 -140 130 0 130 0 0 140 0 140 -130 0 -130 0 0 -140z"/>
<path d="M10180 3955 l0 -145 114 0 c63 0 121 -3 130 -6 14 -5 16 11 16 145
l0 151 -130 0 -130 0 0 -145z"/>
<path d="M10570 3952 l0 -149 98 -6 c53 -4 112 -7 130 -7 l32 0 0 155 0 155
-130 0 -130 0 0 -148z"/>
<path d="M10970 3946 c0 -125 3 -155 14 -159 8 -3 66 -7 128 -8 l113 -1 0 158
0 159 -127 3 -128 3 0 -155z"/>
<path d="M11360 3937 l0 -164 68 -6 c37 -4 95 -7 130 -7 l62 0 -2 168 -3 167
-127 3 -128 3 0 -164z"/>
<path d="M2357 4083 c-4 -3 -7 -105 -7 -226 l0 -219 33 5 c17 3 76 9 130 13
l97 6 0 214 0 214 -123 0 c-68 0 -127 -3 -130 -7z"/>
<path d="M2740 3879 l0 -211 38 6 c20 3 79 8 130 12 l92 6 0 199 0 199 -130 0
-130 0 0 -211z"/>
<path d="M3130 3895 l0 -196 108 6 c171 10 152 -15 152 200 l0 185 -130 0
-130 0 0 -195z"/>
<path d="M3520 3910 l0 -180 74 0 c40 0 101 3 135 6 l61 7 0 173 0 174 -135 0
-135 0 0 -180z"/>
<path d="M11750 3921 l0 -168 77 -7 c42 -3 100 -6 130 -6 l53 0 0 175 0 175
-130 0 -130 0 0 -169z"/>
<path d="M12140 3911 l0 -179 63 -6 c34 -3 92 -7 130 -10 l67 -4 0 189 0 189
-130 0 -130 0 0 -179z"/>
<path d="M12530 3901 c0 -105 3 -192 8 -194 4 -3 62 -8 130 -12 l122 -7 0 201
0 201 -130 0 -130 0 0 -189z"/>
<path d="M1223 4073 l-43 -4 0 -270 c0 -243 2 -269 16 -269 9 0 68 5 130 12
l114 12 0 263 0 263 -87 -2 c-49 -1 -107 -3 -130 -5z"/>
<path d="M1570 3825 c0 -236 1 -255 18 -254 9 0 67 6 127 12 l110 12 3 243 2
242 -130 0 -130 0 0 -255z"/>
<path d="M1960 3844 l0 -237 73 7 c39 4 98 9 130 13 l57 6 0 223 0 224 -130 0
-130 0 0 -236z"/>
<path d="M400 3745 c0 -179 3 -325 6 -325 10 0 207 30 232 36 l22 4 0 305 0
305 -130 0 -130 0 0 -325z"/>
<path d="M790 3775 l0 -295 23 0 c12 0 67 7 122 15 55 8 103 15 108 15 4 0 7
126 7 280 l0 280 -130 0 -130 0 0 -295z"/>
<path d="M8 3709 c-2 -193 -2 -352 0 -353 1 -2 60 7 130 20 70 13 128 23 130
24 1 0 2 149 2 330 l0 330 -130 0 -129 0 -3 -351z"/>
<path d="M6753 3783 l-93 -4 0 -128 c0 -70 2 -130 4 -132 2 -2 61 -3 130 -1
l126 3 0 135 0 134 -37 -2 c-21 -1 -80 -4 -130 -5z"/>
<path d="M7057 3784 c-4 -4 -7 -63 -7 -131 l0 -124 133 3 132 3 0 125 0 125
-126 3 c-69 1 -128 -1 -132 -4z"/>
<path d="M7450 3660 l0 -131 128 3 127 3 3 128 3 127 -131 0 -130 0 0 -130z"/>
<path d="M7840 3660 l0 -130 130 0 130 0 0 130 0 130 -130 0 -130 0 0 -130z"/>
<path d="M8230 3660 l0 -130 130 0 130 0 0 130 0 130 -130 0 -130 0 0 -130z"/>
<path d="M6293 3773 c-23 -4 -23 -7 -23 -140 l0 -136 77 7 c42 3 100 6 130 6
l53 0 0 135 0 135 -107 -1 c-60 -1 -118 -4 -130 -6z"/>
<path d="M9010 3651 l0 -128 46 -7 c26 -3 84 -6 130 -6 l84 0 0 135 0 135
-130 0 -130 0 0 -129z"/>
<path d="M9404 3771 c-7 -8 -4 -260 4 -264 4 -3 63 -6 132 -8 l125 -4 0 135 0
135 -128 5 c-71 3 -131 3 -133 1z"/>
<path d="M5893 3763 c-10 -3 -13 -41 -13 -142 l0 -137 118 4 c64 2 123 5 130
7 9 3 12 40 12 140 l0 135 -117 -1 c-65 0 -124 -3 -130 -6z"/>
<path d="M9800 3769 c0 -2 -2 -66 -3 -141 l-2 -137 35 -5 c19 -3 78 -7 130 -8
l95 -3 3 143 3 142 -93 0 c-51 0 -110 3 -130 6 -21 4 -38 5 -38 3z"/>
<path d="M5203 3743 l-103 -4 0 -149 0 -150 38 0 c22 0 80 3 131 7 l92 6 -3
146 -3 146 -25 1 c-14 0 -71 -1 -127 -3z"/>
<path d="M10190 3610 c0 -104 3 -142 13 -145 6 -2 65 -6 130 -10 l118 -6 -3
148 -3 148 -127 3 -128 3 0 -141z"/>
<path d="M10580 3592 l0 -150 73 -6 c39 -4 98 -9 130 -12 l57 -6 0 156 0 156
-47 0 c-27 0 -85 3 -130 7 l-83 6 0 -151z"/>
<path d="M4765 3721 l-60 -6 -3 -145 c-1 -79 -1 -149 1 -155 3 -7 43 -7 133 0
l129 10 3 153 3 152 -73 -2 c-40 -1 -100 -4 -133 -7z"/>
<path d="M10970 3566 l0 -153 48 -6 c26 -3 84 -9 130 -13 l82 -7 0 160 0 160
-77 7 c-42 3 -100 6 -130 6 l-53 0 0 -154z"/>
<path d="M4368 3703 l-58 -4 0 -166 0 -166 58 6 c31 4 90 9 130 13 l72 7 0
158 0 159 -72 -2 c-40 -1 -99 -3 -130 -5z"/>
<path d="M11362 3538 l3 -163 70 -7 c39 -3 96 -9 128 -13 l57 -6 0 169 0 169
-82 6 c-46 4 -104 7 -131 7 l-47 0 2 -162z"/>
<path d="M3993 3683 l-73 -4 0 -176 0 -176 56 7 c31 3 90 9 130 13 l74 6 0
168 0 169 -57 -2 c-32 -1 -91 -4 -130 -5z"/>
<path d="M11752 3509 l3 -174 105 -12 c58 -6 115 -12 128 -12 l22 -1 0 180 0
180 -53 0 c-30 0 -89 3 -131 6 l-76 7 2 -174z"/>
<path d="M12150 3650 c-2 -19 1 -355 3 -356 2 -3 234 -34 249 -34 4 0 8 83 8
185 0 140 -3 187 -12 190 -21 7 -248 21 -248 15z"/>
<path d="M3270 3633 c-25 -1 -64 -5 -87 -9 l-43 -5 0 -195 0 -194 38 6 c20 3
78 11 127 17 l90 12 3 188 2 187 -42 -2 c-24 -1 -63 -3 -88 -5z"/>
<path d="M12540 3436 c0 -108 3 -196 8 -196 4 0 52 -7 107 -15 55 -8 110 -15
123 -15 l22 0 0 199 0 199 -102 6 c-57 4 -115 9 -130 12 l-28 6 0 -196z"/>
<path d="M2905 3604 c-11 -2 -50 -6 -87 -9 l-68 -7 0 -207 0 -207 130 20 130
20 0 198 0 198 -42 -1 c-24 -1 -52 -3 -63 -5z"/>
<path d="M2475 3564 c-66 -7 -121 -13 -122 -13 -8 -2 -2 -431 5 -435 8 -5 220
28 250 39 16 6 13 417 -3 420 -5 1 -64 -3 -130 -11z"/>
<path d="M2075 3525 c-55 -7 -103 -14 -107 -14 -5 -1 -8 -107 -8 -236 0 -182
3 -235 13 -235 6 1 64 11 127 23 l115 23 3 227 2 227 -22 -1 c-13 -1 -68 -7
-123 -14z"/>
<path d="M1693 3483 l-123 -15 0 -254 c0 -152 4 -254 9 -254 6 0 38 6 73 14
35 8 89 20 121 26 l57 11 0 245 c0 134 -3 243 -7 243 -5 -1 -63 -8 -130 -16z"/>
<path d="M7137 3473 l-88 -4 3 -127 3 -127 90 -3 c50 -2 109 0 133 3 l43 6 -3
127 -3 127 -45 1 c-25 0 -85 -1 -133 -3z"/>
<path d="M7450 3350 l0 -130 130 0 130 0 0 130 0 130 -130 0 -130 0 0 -130z"/>
<path d="M7840 3350 l0 -130 130 0 130 0 0 130 0 130 -130 0 -130 0 0 -130z"/>
<path d="M8230 3351 l0 -130 126 -3 c69 -2 128 -1 130 1 2 2 4 62 4 133 l0
128 -130 0 -130 0 0 -129z"/>
<path d="M6723 3463 l-63 -4 0 -129 c0 -71 3 -130 8 -132 4 -2 62 -2 130 0
l122 3 0 135 0 134 -67 -2 c-38 -1 -96 -3 -130 -5z"/>
<path d="M8620 3340 l0 -130 93 0 c50 0 109 -3 130 -6 l37 -7 0 137 0 136
-130 0 -130 0 0 -130z"/>
<path d="M6383 3453 l-113 -4 0 -139 0 -138 78 4 c42 3 101 7 130 10 l52 5 0
135 c0 122 -2 134 -17 132 -10 -1 -69 -4 -130 -5z"/>
<path d="M9010 3331 l0 -128 38 -7 c20 -3 79 -6 130 -6 l92 0 0 135 0 135
-130 0 -130 0 0 -129z"/>
<path d="M1293 3432 l-113 -15 0 -274 c0 -212 3 -273 13 -273 6 1 64 13 127
29 l115 27 3 262 c2 245 1 262 -15 261 -10 -1 -69 -9 -130 -17z"/>
<path d="M9407 3444 c-4 -4 -7 -65 -7 -135 l0 -128 43 -5 c23 -3 84 -8 135
-11 l92 -6 0 136 c0 100 -3 137 -12 140 -26 8 -244 16 -251 9z"/>
<path d="M5963 3433 l-83 -4 0 -141 0 -141 98 6 c53 4 112 7 130 7 l32 0 0
140 0 140 -47 -2 c-27 -1 -85 -4 -130 -5z"/>
<path d="M9800 3292 l0 -140 78 -6 c42 -4 101 -9 130 -12 l52 -6 0 141 c0 105
-3 143 -12 146 -7 2 -66 6 -130 10 l-118 6 0 -139z"/>
<path d="M5620 3413 c-36 -2 -80 -5 -97 -8 l-33 -6 0 -144 0 -144 48 5 c26 3
83 8 127 12 l80 7 3 143 3 142 -33 -2 c-18 -1 -62 -3 -98 -5z"/>
<path d="M10190 3266 c0 -80 3 -146 8 -147 4 0 60 -6 125 -12 65 -7 120 -11
123 -8 2 2 4 68 4 147 l0 142 -87 6 c-49 4 -107 9 -130 12 l-43 5 0 -145z"/>
<path d="M1035 3395 c-5 -2 -63 -11 -127 -21 l-118 -17 0 -293 c0 -191 4 -294
10 -294 6 0 64 14 130 32 l120 31 0 284 c0 155 -1 283 -2 282 -2 0 -7 -2 -13
-4z"/>
<path d="M5175 3381 l-70 -6 -3 -153 -3 -154 28 6 c16 3 57 8 93 11 36 3 82 8
103 11 l37 6 0 144 0 144 -57 -2 c-32 -1 -89 -4 -128 -7z"/>
<path d="M10580 3232 l0 -151 45 -5 c25 -3 66 -8 93 -11 26 -3 64 -8 85 -11
l37 -6 0 155 0 155 -72 6 c-40 4 -99 9 -130 12 l-58 6 0 -150z"/>
<path d="M4835 3353 c-22 -2 -59 -6 -82 -9 l-43 -5 0 -155 0 -154 23 0 c27 0
180 18 215 26 22 4 22 7 22 154 l0 150 -47 -2 c-27 -1 -66 -3 -88 -5z"/>
<path d="M10972 3194 l3 -159 80 -11 c44 -6 101 -14 128 -17 l47 -7 0 160 c0
183 13 165 -125 175 -49 4 -100 9 -113 12 l-23 5 3 -158z"/>
<path d="M550 3318 c-25 -5 -69 -14 -97 -19 l-53 -10 0 -320 c0 -249 3 -319
13 -318 6 0 64 17 127 37 l115 38 3 302 2 302 -32 -1 c-18 -1 -53 -5 -78 -11z"/>
<path d="M4430 3314 c-63 -7 -116 -13 -117 -13 -7 -2 -2 -320 5 -324 5 -3 223
25 250 32 1 1 2 73 2 161 0 122 -3 160 -12 159 -7 -1 -65 -7 -128 -15z"/>
<path d="M11360 3146 c0 -126 3 -166 13 -166 6 0 65 -9 130 -19 l117 -18 0
168 c0 193 12 173 -110 184 -36 3 -84 8 -107 11 l-43 6 0 -166z"/>
<path d="M4060 3274 c-52 -7 -105 -13 -117 -13 -23 -1 -23 -1 -23 -176 0 -96
3 -175 8 -175 4 0 59 9 122 20 63 11 118 20 123 20 4 0 7 77 7 170 0 130 -3
170 -12 169 -7 -1 -56 -7 -108 -15z"/>
<path d="M11754 3255 c-3 -6 -3 -83 -2 -170 l3 -160 85 -17 c47 -9 106 -19
133 -22 l47 -7 0 176 c0 132 -3 177 -12 180 -7 2 -66 10 -132 18 -85 9 -119
10 -122 2z"/>
<path d="M145 3241 c-44 -10 -92 -21 -107 -24 l-28 -7 0 -350 c0 -193 3 -350
6 -350 3 0 62 21 130 46 l124 47 0 328 0 329 -22 -1 c-13 -1 -59 -9 -103 -18z"/>
<path d="M3720 3234 c-8 -1 -54 -8 -102 -14 l-88 -12 0 -184 0 -183 28 5 c15
3 72 13 127 23 l100 17 3 177 2 177 -27 -1 c-16 -1 -35 -3 -43 -5z"/>
<path d="M12150 3036 l0 -182 113 -22 c62 -12 121 -22 130 -22 16 0 17 16 15
187 l-3 187 -95 13 c-52 6 -110 14 -127 17 l-33 5 0 -183z"/>
<path d="M3255 3171 l-110 -16 -3 -196 -2 -196 130 26 130 26 0 188 c0 172 -1
187 -17 186 -10 -1 -67 -9 -128 -18z"/>
<path d="M7450 3040 l0 -130 130 0 130 0 0 130 0 130 -130 0 -130 0 0 -130z"/>
<path d="M7840 3040 l0 -130 130 0 130 0 0 130 0 130 -130 0 -130 0 0 -130z"/>
<path d="M8230 3041 l0 -128 83 -6 c45 -4 103 -7 130 -7 l47 0 0 128 0 129
-97 6 c-54 4 -113 7 -130 7 l-33 0 0 -129z"/>
<path d="M8620 3033 c0 -154 -12 -143 153 -143 l107 0 0 130 0 130 -53 0 c-30
0 -88 3 -130 6 l-77 7 0 -130z"/>
<path d="M12542 2968 l3 -191 128 -27 127 -27 -2 201 -3 201 -105 17 c-58 9
-115 17 -128 17 l-22 1 2 -192z"/>
<path d="M6723 3143 l-53 -4 0 -125 c0 -68 0 -127 0 -131 0 -9 134 -6 213 3
l47 6 0 129 0 129 -77 -2 c-43 -1 -102 -3 -130 -5z"/>
<path d="M2860 3110 c-58 -10 -106 -19 -107 -19 -2 -1 -3 -93 -3 -206 0 -158
3 -205 13 -205 6 1 64 13 127 28 l115 28 3 197 2 197 -22 -1 c-13 -1 -70 -10
-128 -19z"/>
<path d="M6335 3121 l-60 -6 -3 -132 -3 -133 39 0 c21 0 80 3 130 6 l92 7 0
133 0 134 -67 -2 c-38 -1 -95 -4 -128 -7z"/>
<path d="M9410 2987 l0 -134 58 -6 c31 -4 90 -9 130 -13 l72 -7 0 136 c0 75
-3 138 -7 140 -5 3 -63 8 -130 12 l-123 7 0 -135z"/>
<path d="M9800 2953 l0 -140 74 -6 c40 -4 99 -10 130 -13 l56 -7 0 141 c0 163
16 147 -152 158 l-108 7 0 -140z"/>
<path d="M5610 3065 c-63 -7 -116 -13 -117 -14 -2 -1 -3 -67 -3 -147 0 -134 1
-145 18 -140 9 2 68 10 130 17 l112 12 0 144 c0 108 -3 143 -12 142 -7 -1 -65
-7 -128 -14z"/>
<path d="M5215 3025 c-55 -7 -103 -14 -107 -14 -5 -1 -8 -68 -8 -151 0 -114 3
-150 13 -149 6 0 64 8 127 17 l115 17 3 148 3 147 -23 -1 c-13 -1 -68 -7 -123
-14z"/>
<path d="M10580 2870 c0 -82 2 -150 5 -150 8 0 198 -30 228 -36 l27 -6 0 156
c0 86 -3 156 -7 156 -5 0 -62 7 -128 15 -65 8 -121 15 -122 15 -2 0 -3 -67 -3
-150z"/>
<path d="M2070 2966 l-105 -22 -3 -237 c-1 -130 0 -237 2 -237 10 0 247 69
256 75 6 4 10 90 10 226 l0 219 -27 -1 c-16 -1 -75 -11 -133 -23z"/>
<path d="M4805 2975 c-49 -7 -91 -14 -92 -14 -8 -3 -2 -311 6 -311 5 0 63 9
128 20 65 11 119 20 121 20 1 0 2 68 2 150 l0 150 -37 -1 c-21 -1 -78 -7 -128
-14z"/>
<path d="M10970 2816 c0 -153 0 -156 23 -160 12 -3 70 -13 130 -24 l107 -19 0
162 0 162 -92 12 c-51 7 -110 14 -130 18 l-38 6 0 -157z"/>
<path d="M1697 2885 c-54 -13 -104 -26 -112 -29 -13 -4 -15 -45 -15 -256 0
-137 3 -250 8 -250 4 0 61 18 127 39 l120 38 3 241 c2 226 1 242 -15 241 -10
0 -62 -11 -116 -24z"/>
<path d="M11360 2750 c0 -88 1 -160 3 -160 2 0 56 -11 121 -25 65 -14 124 -25
132 -25 12 0 14 28 12 167 l-3 167 -100 18 c-55 9 -115 17 -132 17 l-33 1 0
-160z"/>
<path d="M4060 2864 c-41 -7 -90 -16 -107 -19 l-33 -6 0 -168 c0 -92 2 -170 5
-173 4 -4 158 25 239 46 l26 6 0 165 0 165 -27 -1 c-16 -1 -62 -7 -103 -15z"/>
<path d="M1298 2788 l-118 -30 0 -275 0 -274 22 7 c12 3 69 23 127 44 l106 38
3 261 c2 206 0 261 -10 260 -7 0 -66 -14 -130 -31z"/>
<path d="M3633 2787 l-103 -21 0 -183 c0 -101 2 -183 5 -183 3 0 62 14 130 31
l125 31 0 174 0 174 -27 -1 c-16 -1 -74 -11 -130 -22z"/>
<path d="M12150 2598 l0 -183 118 -29 c64 -16 123 -31 130 -33 9 -4 12 37 12
186 0 105 -2 191 -4 191 -2 0 -58 11 -126 25 -68 14 -124 25 -126 25 -2 0 -4
-82 -4 -182z"/>
<path d="M3275 2714 c-60 -13 -115 -26 -122 -28 -17 -7 -19 -386 -2 -386 6 0
64 15 130 32 l119 33 0 187 c0 104 -3 188 -7 187 -5 0 -57 -11 -118 -25z"/>
<path d="M915 2681 l-120 -37 -3 -296 -2 -296 130 51 130 52 0 283 c0 155 -3
282 -7 281 -5 0 -62 -17 -128 -38z"/>
<path d="M7073 2693 c-10 -3 -13 -40 -13 -135 l0 -131 61 7 c34 3 93 6 130 6
l69 0 0 130 0 130 -117 -1 c-65 0 -124 -3 -130 -6z"/>
<path d="M12540 2507 l0 -193 115 -32 c63 -18 122 -35 130 -38 14 -6 15 18 13
197 l-3 202 -105 24 c-58 12 -115 25 -127 28 l-23 5 0 -193z"/>
<path d="M2865 2621 l-110 -26 -3 -208 -2 -207 23 5 c13 4 70 21 128 39 l104
32 3 197 c2 183 1 197 -15 196 -10 0 -67 -13 -128 -28z"/>
<path d="M523 2557 l-123 -42 0 -322 0 -322 118 55 c64 31 123 58 130 61 9 4
12 75 12 309 0 167 -3 304 -7 304 -5 -1 -63 -20 -130 -43z"/>
<path d="M2525 2535 c-44 -13 -99 -28 -122 -35 l-43 -11 0 -220 c0 -173 3
-220 13 -216 6 2 65 22 130 43 l117 38 0 213 c0 117 -3 213 -7 212 -5 -1 -44
-11 -88 -24z"/>
<path d="M9010 2402 c0 -154 -17 -137 158 -147 l112 -7 0 131 c0 71 -4 132 -8
135 -5 3 -65 8 -135 12 l-127 7 0 -131z"/>
<path d="M128 2412 l-118 -47 0 -353 0 -354 58 33 c31 18 90 50 130 71 l72 40
0 329 c0 257 -3 329 -12 328 -7 0 -66 -21 -130 -47z"/>
<path d="M1695 2285 l-120 -42 -3 -251 c-1 -139 1 -252 6 -252 4 0 64 24 133
54 l124 53 0 238 c0 151 -4 239 -10 241 -5 1 -64 -17 -130 -41z"/>
<path d="M11760 2071 c0 -169 0 -171 23 -176 12 -3 63 -14 112 -25 50 -11 98
-23 108 -26 16 -5 17 8 17 174 l0 179 -87 16 c-49 9 -107 19 -130 23 l-43 7 0
-172z"/>
<path d="M6010 2216 l-125 -11 -3 -139 -3 -139 93 7 c51 4 110 9 131 13 l37 6
0 138 c0 77 -1 138 -2 138 -2 -1 -59 -7 -128 -13z"/>
<path d="M4423 2182 l-102 -16 -3 -164 c-2 -90 -2 -165 0 -166 1 -2 61 9 132
23 l130 25 0 158 0 158 -27 -1 c-16 -1 -74 -9 -130 -17z"/>
<path d="M1395 2180 c-11 -5 -64 -26 -117 -46 l-98 -37 0 -273 c0 -151 3 -274
8 -273 4 0 62 28 130 62 l123 63 2 257 c2 276 3 270 -48 247z"/>
<path d="M10320 1766 c0 -80 3 -146 8 -146 4 0 57 -7 117 -15 61 -8 116 -15
123 -15 9 0 12 35 12 144 0 166 10 151 -110 161 -41 3 -92 8 -112 11 l-38 6 0
-146z"/>
<path d="M528 1804 l-128 -64 0 -320 c0 -176 2 -320 4 -320 5 0 239 149 249
159 4 4 6 143 5 308 l-3 301 -127 -64z"/>
<path d="M245 1656 c-11 -7 -68 -42 -127 -77 l-108 -63 0 -353 0 -353 130 98
130 97 0 333 c0 182 -1 332 -2 331 -2 0 -12 -6 -23 -13z"/>
<path d="M2080 1575 l-105 -32 -3 -237 c-2 -223 -1 -237 15 -232 10 3 68 25
128 49 l110 43 3 222 2 222 -22 -1 c-13 0 -70 -15 -128 -34z"/>
<path d="M1148 648 l-118 -51 0 -298 0 -297 130 72 130 71 0 278 c0 215 -3
277 -12 277 -7 0 -66 -24 -130 -52z"/>
</g>
</svg>
